# xmcd CD database file
#
# Track frame offsets:
#	150
#	13643
#	26793
#	40885
#	56023
#	72826
#	86569
#	101087
#	117919
#	133431
#	149459
#	165084
#	181702
#	194712
#
# Disc length: 2902 seconds
#
# Revision: 0
# Processed by: cddbd v1.5.2PL0 Copyright (c) Steve Scherf et al.
# Submitted via: CDex 1.40Beta9
#
DISCID=c60b540e
DTITLE=Truck Stop - Trucker, Cowboys, Männer #3
DYEAR=2002
DGENRE=Country
TTITLE0=Der wilde, wilde Westen (Neuaufnahme)
TTITLE1=Sally and Dan
TTITLE2=Hallo Freunde
TTITLE3=Highways and Bridges
TTITLE4=Es ist nicht wahr
TTITLE5=Die Schüler von der letzten Bank
TTITLE6=Sieht sie 'nen Cowboy...
TTITLE7=In der Hitze der Nacht
TTITLE8=und ohne sie schon gar nicht
TTITLE9=Hey, kleiner Cowboy
TTITLE10=Jeans And Country Music
TTITLE11=Auf die harte Tour
TTITLE12=Country Fans
TTITLE13=Super Hit Medley
EXTD=YEAR: 2002 ID3G: 2
EXTT0=
EXTT1=
EXTT2=
EXTT3=
EXTT4=
EXTT5=
EXTT6=
EXTT7=
EXTT8=
EXTT9=
EXTT10=
EXTT11=
EXTT12=
EXTT13=
PLAYORDER=
